<?xml version="1.0" standalone="no"?>
<!DOCTYPE svg PUBLIC "-//W3C//DTD SVG 20010904//EN"
 "http://www.w3.org/TR/2001/REC-SVG-20010904/DTD/svg10.dtd">
<svg version="1.0" xmlns="http://www.w3.org/2000/svg"
 width="280.000000pt" height="280.000000pt" viewBox="0 0 280.000000 280.000000"
 preserveAspectRatio="xMidYMid meet">
<metadata>
Created by potrace 1.11, written by Peter Selinger 2001-2013
</metadata>
<g transform="translate(0.000000,280.000000) scale(0.100000,-0.100000)"
fill="#000000" stroke="none">
<path d="M1737 2653 c-1 -1 -15 -4 -30 -7 -38 -7 -93 -42 -116 -75 -41 -57
-39 -128 5 -180 l25 -31 -225 -226 -226 -227 -35 11 c-55 16 -144 9 -192 -16
-50 -26 -94 -86 -98 -134 -3 -37 25 -104 52 -124 55 -39 54 -35 31 -84 -31
-67 -79 -175 -79 -177 0 -1 -18 -39 -40 -83 -21 -44 -39 -85 -39 -90 0 -4 -19
-8 -42 -8 -125 2 -215 -61 -226 -157 -6 -55 17 -101 68 -139 l39 -29 -26 -56
c-14 -31 -28 -66 -30 -79 -3 -12 -10 -22 -16 -22 -6 0 -8 -3 -4 -6 3 -3 -7
-34 -23 -69 -16 -35 -26 -66 -23 -69 4 -3 2 -6 -4 -6 -6 0 -14 -12 -19 -28
-18 -66 -21 -69 -65 -66 -146 8 -254 -113 -205 -229 33 -79 160 -132 251 -104
17 5 36 9 44 10 8 0 33 19 57 41 49 47 63 96 45 156 -10 35 -71 102 -101 112
-13 4 -1 39 67 198 8 19 19 44 24 55 4 11 21 49 37 85 l29 65 58 -2 c40 -1 61
-6 64 -15 2 -7 14 -35 26 -63 42 -93 53 -123 47 -129 -3 -3 -1 -6 4 -6 6 0 19
-24 29 -52 10 -29 25 -64 32 -78 7 -14 13 -30 13 -37 0 -6 5 -13 10 -15 6 -2
-7 -14 -29 -27 -68 -42 -97 -119 -70 -188 38 -100 191 -148 302 -94 70 34 102
81 102 150 0 48 -5 61 -30 90 -45 50 -99 74 -174 76 -58 1 -66 4 -75 26 -5 13
-17 42 -27 64 -44 103 -129 307 -129 310 0 1 14 8 30 15 17 7 30 15 30 19 0 3
11 18 25 33 63 68 37 173 -57 231 l-27 17 35 78 c58 124 67 146 70 162 2 8 8
16 13 18 6 2 11 10 11 17 0 8 11 34 24 59 14 26 22 46 19 46 -3 0 0 6 7 14 6
8 17 13 25 10 7 -3 35 -6 62 -7 l48 -2 81 -162 c44 -90 78 -163 76 -163 -3 0
3 -9 13 -20 10 -11 15 -20 11 -20 -4 0 -2 -9 4 -19 8 -16 6 -21 -10 -26 -30
-10 -77 -56 -89 -88 -45 -120 61 -229 216 -223 81 3 133 33 172 97 35 58 25
125 -26 177 -43 43 -96 63 -178 66 -31 1 -42 6 -50 24 -5 12 -13 22 -18 22 -4
0 -5 5 -2 10 3 6 1 10 -4 10 -6 0 -10 3 -9 8 1 4 -8 27 -19 52 -12 25 -22 50
-23 55 -1 6 -6 15 -11 21 -12 15 -101 196 -97 198 122 68 149 177 65 260 -22
22 -44 -5 224 264 234 235 208 215 252 197 20 -8 40 -15 44 -15 5 0 8 -86 8
-192 l0 -191 -24 -4 c-87 -13 -160 -90 -157 -166 4 -121 144 -198 284 -156
128 38 173 175 85 262 -34 35 -117 72 -134 61 -5 -3 -9 81 -9 190 0 176 2 196
18 204 9 5 23 7 30 5 7 -3 19 0 26 6 13 11 43 -18 201 -194 11 -13 50 -56 87
-96 36 -41 80 -90 96 -109 l31 -35 -29 -29 c-61 -59 -64 -151 -6 -211 125
-128 376 -58 376 105 0 106 -135 191 -258 162 -46 -11 -48 -10 -73 18 -45 50
-173 192 -199 220 -14 15 -54 60 -90 100 -36 40 -71 79 -78 86 -10 10 -8 15 7
27 25 16 58 95 54 122 -7 35 -25 75 -35 75 -5 0 -6 5 -3 10 3 6 2 10 -3 10 -4
0 -17 8 -28 18 -22 21 -95 45 -142 46 -18 1 -34 1 -35 -1z"/>
</g>
</svg>
